<svg width="53" height="16" viewBox="0 0 53 16" fill="none" xmlns="http://www.w3.org/2000/svg">
<path d="M1.456 2.16H4.08L6.096 7.696C6.224 8.06933 6.34667 8.448 6.464 8.832C6.58133 9.216 6.69867 9.6 6.816 9.984H6.896C7.024 9.6 7.14133 9.216 7.248 8.832C7.36533 8.448 7.488 8.06933 7.616 7.696L9.584 2.16H12.208V14H10.048V9.056C10.048 8.77867 10.0587 8.47467 10.08 8.144C10.1013 7.80267 10.1227 7.46133 10.144 7.12C10.176 6.768 10.208 6.42667 10.24 6.096C10.272 5.75467 10.304 5.44533 10.336 5.168H10.272L9.312 7.952L7.488 12.928H6.128L4.288 7.952L3.344 5.168H3.28C3.312 5.44533 3.344 5.75467 3.376 6.096C3.408 6.42667 3.44 6.768 3.472 7.12C3.504 7.46133 3.53067 7.80267 3.552 8.144C3.57333 8.47467 3.584 8.77867 3.584 9.056V14H1.456V2.16ZM19.8163 14.224C19.0269 14.224 18.3069 14.0853 17.6562 13.808C17.0163 13.52 16.4616 13.1093 15.9923 12.576C15.5229 12.032 15.1603 11.3813 14.9043 10.624C14.6483 9.856 14.5203 8.992 14.5203 8.032C14.5203 7.072 14.6483 6.21333 14.9043 5.456C15.1603 4.69867 15.5229 4.05867 15.9923 3.536C16.4616 3.01333 17.0163 2.61867 17.6562 2.352C18.3069 2.07467 19.0269 1.936 19.8163 1.936C20.5949 1.936 21.3096 2.07467 21.9603 2.352C22.6109 2.62933 23.1709 3.02933 23.6403 3.552C24.1096 4.064 24.4723 4.69867 24.7283 5.456C24.9843 6.21333 25.1123 7.072 25.1123 8.032C25.1123 8.992 24.9843 9.856 24.7283 10.624C24.4723 11.3813 24.1096 12.032 23.6403 12.576C23.1709 13.1093 22.6109 13.52 21.9603 13.808C21.3096 14.0853 20.5949 14.224 19.8163 14.224ZM19.8163 12.176C20.2536 12.176 20.6483 12.08 21.0003 11.888C21.3629 11.696 21.6669 11.4187 21.9123 11.056C22.1683 10.6933 22.3603 10.256 22.4883 9.744C22.6269 9.232 22.6962 8.66133 22.6962 8.032C22.6962 6.752 22.4349 5.75467 21.9123 5.04C21.4003 4.32533 20.7016 3.968 19.8163 3.968C18.9309 3.968 18.2269 4.32533 17.7043 5.04C17.1923 5.75467 16.9363 6.752 16.9363 8.032C16.9363 8.66133 17.0003 9.232 17.1283 9.744C17.2669 10.256 17.4589 10.6933 17.7043 11.056C17.9603 11.4187 18.2643 11.696 18.6163 11.888C18.9789 12.08 19.3789 12.176 19.8163 12.176ZM29.7928 7.648H31.3288C32.0968 7.648 32.6781 7.49333 33.0728 7.184C33.4781 6.864 33.6808 6.384 33.6808 5.744C33.6808 5.104 33.4781 4.66133 33.0728 4.416C32.6781 4.16 32.0968 4.032 31.3288 4.032H29.7928V7.648ZM33.8728 14L31.4408 9.52H29.7928V14H27.4248V2.16H31.5528C32.1714 2.16 32.7528 2.21867 33.2968 2.336C33.8408 2.45333 34.3101 2.65067 34.7048 2.928C35.1101 3.20533 35.4248 3.57333 35.6488 4.032C35.8834 4.49067 36.0008 5.06133 36.0008 5.744C36.0008 6.64 35.7928 7.36533 35.3767 7.92C34.9714 8.47467 34.4274 8.88533 33.7448 9.152L36.5128 14H33.8728ZM38.331 2.16H45.595V4.128H40.699V6.864H44.859V8.848H40.699V12.016H45.771V14H38.331V2.16Z" fill="#242CF8"/>
<path d="M49.3108 14.224C48.8948 14.224 48.5481 14.08 48.2708 13.792C47.9934 13.4933 47.8548 13.1253 47.8548 12.688C47.8548 12.2507 47.9934 11.888 48.2708 11.6C48.5481 11.3013 48.8948 11.152 49.3108 11.152C49.7374 11.152 50.0894 11.3013 50.3668 11.6C50.6441 11.888 50.7828 12.2507 50.7828 12.688C50.7828 13.1253 50.6441 13.4933 50.3668 13.792C50.0894 14.08 49.7374 14.224 49.3108 14.224Z" fill="#FF6B00"/>
</svg>
